<svg xmlns="http://www.w3.org/2000/svg" id="logo" viewBox="0 0 419 54"><g fill="none">
<path d="M180.199 54H180.872V0.666626H180.199V54Z" fill="#141E3C"/>
<path d="M23.6353 23.1286H26.5833V37.3643H23.6353V23.1286Z" fill="#E57200"/>
<path d="M7.71533 23.1286H10.5701V37.3643H7.71533V23.1286Z" fill="#E57200"/>
<path d="M11.5518 23.1286H14.5965V37.3643H11.5518V23.1286Z" fill="#E57200"/>
<path d="M15.5806 23.1286H18.6242V37.3643H15.5806V23.1286Z" fill="#E57200"/>
<path d="M22.6506 37.3655H19.6069V23.1297H22.6506V37.3655Z" fill="#E57200"/>
<path d="M25.3156 22.1225H8.91797L17.3338 16.8722L25.3156 22.1225Z" fill="#E57200"/>
<path d="M0.00390625 16.8169V22.1231H7.0289L15.5324 16.8169H0.00390625Z" fill="#E57200"/>
<path d="M19.0708 16.8171H34.2002V22.1222H27.1336L19.0708 16.8171Z" fill="#E57200"/>
<path d="M32.0351 15.8117H2.16992C5.09438 10.4622 10.6847 6.84684 17.1014 6.84684C23.5181 6.84684 29.1096 10.4622 32.0351 15.8117Z" fill="#E57200"/>
<path fill-rule="evenodd" clip-rule="evenodd" d="M2.3043 33.308L2.04682 34.105L2.71694 33.6136L3.38481 34.105L3.12958 33.308L3.79857 32.8144H2.97217L2.71694 32.0174L2.46059 32.8144L1.63418 32.8155L2.3043 33.308ZM0.000488281 28.7806L0.670606 29.2742L0.413128 30.0712L1.08325 29.5786L1.75112 30.0712L1.49589 29.2742L2.16488 28.7806H1.33848L1.08325 27.9836L0.826892 28.7806H0.000488281ZM6.73315 37.3658H5.82917L5.57506 36.5745L6.24405 36.0808H5.41765L5.1613 35.2828L4.90607 36.0808H4.07966L4.74978 36.5745L4.49455 37.3658H0.00386138L0.000488281 28.7806L0.00386138 25.6851L0.631254 25.2233L1.30025 25.717L1.04502 24.92L1.71401 24.4264H0.886483L0.631254 23.6294L0.515445 23.992L0.353537 24.4264H0.00386138V23.1289H6.73315V37.3658ZM5.82242 37.3658H4.50017L5.1613 36.8789L5.82242 37.3658ZM0.00386138 25.5882V24.7616L0.200624 24.9064L0.0578306 25.3499L0.00386138 25.5882Z" fill="#E57200"/>
<path fill-rule="evenodd" clip-rule="evenodd" d="M6.73271 42.1507H0.00341797V38.3723H6.73271V42.1507Z" fill="#E57200"/>
<path fill-rule="evenodd" clip-rule="evenodd" d="M27.5659 38.3723H34.2008V42.1507H27.5659V38.3723Z" fill="#E57200"/>
<path fill-rule="evenodd" clip-rule="evenodd" d="M21.7142 41.0406L22.3844 40.547H21.558L21.3016 39.75L21.0464 40.547H20.22L20.889 41.0406L20.6337 41.8376L21.3016 41.345L21.9717 41.8376L21.7142 41.0406ZM16.7176 41.5697L16.5298 42.1511H7.71484V38.3716H8.8021L8.61321 38.9644H7.78568L8.4558 39.4558L8.19944 40.2539L8.86844 39.7614L9.53743 40.2539L9.28108 39.4558L9.9512 38.9644H9.12367L8.93477 38.3716H25.3156L25.1255 38.9644H24.2991L24.9681 39.4558L24.7129 40.2539L25.3819 39.7614L26.0498 40.2539L25.7934 39.4558L26.4635 38.9644H25.6371L25.4471 38.3716H26.5827V42.1511H17.7295L17.5429 41.5697L18.2119 41.0771H17.3855L17.1291 40.2802L16.8739 41.0771H16.0475L16.7176 41.5697ZM12.4158 41.0406L12.1583 41.8376L12.8273 41.345L13.4963 41.8376L13.2411 41.0406L13.9101 40.547H13.0837L12.8273 39.75L12.5721 40.547H11.7457L12.4158 41.0406ZM17.5103 42.1511H16.7536L17.1291 41.8741L17.5103 42.1511Z" fill="#E57200"/>
<path fill-rule="evenodd" clip-rule="evenodd" d="M31.9454 33.308L32.6156 32.8155L31.7892 32.8144L31.5328 32.0174L31.2776 32.8144H30.4512L31.1202 33.308L30.8649 34.105L31.5328 33.6136L32.2018 34.105L31.9454 33.308ZM29.7552 37.3658L29.5 36.5745L30.1701 36.0808H29.3437L29.0884 35.2828L28.8321 36.0808H28.0057L28.6747 36.5745L28.4217 37.3658L29.0884 36.8789L29.7496 37.3658H29.7552ZM34.1998 37.3658H29.7552H28.4273H27.5649V23.1289H34.1998V24.4264H33.8737L33.6185 23.6294L33.3633 24.4264H32.5357L33.2047 24.92L32.9495 25.717L33.6185 25.2233L34.1998 25.652V28.7806H33.4229L33.1665 27.9836L32.9113 28.7806H32.0849L32.7539 29.2742L32.4986 30.0712L33.1665 29.5786L33.8355 30.0712L33.5791 29.2742L34.1998 28.817V37.3658ZM34.1998 24.7935V25.4468L34.03 24.92L34.1998 24.7935Z" fill="#E57200"/>
<path fill-rule="evenodd" clip-rule="evenodd" d="M47.7528 26.1588C50.1623 26.1588 51.8511 25.5134 52.9586 24.4736C54.5091 23.1271 55.1185 21.3576 55.2849 19.0557C55.367 17.9612 55.4232 13.046 55.4232 12.6527C55.4232 12.2605 55.4232 8.27229 55.4783 7.99067C55.5615 7.65548 55.6447 6.86878 56.669 6.86878H57.8035C57.9429 6.86878 57.9699 6.75591 57.9699 6.58831V5.97035C57.9699 5.88712 57.9429 5.77311 57.6933 5.77311C57.4448 5.77311 56.5577 5.85748 54.6474 5.85748C52.7922 5.85748 51.5183 5.77311 51.2417 5.77311C51.0753 5.77311 51.0472 5.83012 51.0472 5.97035V6.64417C51.0472 6.78441 51.0753 6.86878 51.2417 6.86878H52.4605C53.1801 6.86878 53.6231 7.37386 53.7052 8.10469C53.7895 8.80587 53.8446 10.434 53.8446 12.5695V18.578C53.8446 20.6553 53.4848 22.3404 52.4043 23.5193C51.4351 24.5295 49.8295 25.0642 48.2509 25.0642C46.6453 25.0642 44.8722 24.5591 43.8479 23.0428C43.2115 22.0873 42.99 20.767 42.9619 19.4764C42.9349 18.578 42.8236 15.0128 42.8236 13.5238V11.6699C42.8236 10.2379 42.8517 8.27229 42.8798 8.02032C42.9349 7.40236 43.4049 6.86878 44.2088 6.86878H45.5929C45.7863 6.86878 45.8144 6.81292 45.8144 6.67268V5.94299C45.8144 5.83012 45.7863 5.77311 45.5648 5.77311C45.2601 5.77311 43.9311 5.85748 41.7712 5.85748C39.6113 5.85748 38.2542 5.77311 37.9776 5.77311C37.7561 5.77311 37.728 5.83012 37.728 5.99772V6.61567C37.728 6.81291 37.7561 6.86878 37.9225 6.86878H39.2245C40.0824 6.86878 40.2769 7.31914 40.2769 8.30079V14.9831C40.2769 18.6624 40.3871 20.5436 40.7199 21.8069C41.1618 23.5752 42.131 24.81 44.0143 25.5693C44.9284 25.9615 46.3125 26.1588 47.7528 26.1588Z" fill="#141E3C"/>
<path fill-rule="evenodd" clip-rule="evenodd" d="M70.4874 16.4777C70.4874 15.2258 70.4267 13.3047 70.5773 11.9012C70.638 11.4736 70.7887 11.2604 71.5409 11.2604H71.8411C71.9614 11.2604 72.021 11.1692 72.021 11.0472V10.4076C72.021 10.224 71.9614 10.1625 71.8107 10.1625C71.6005 10.1625 70.547 10.2537 69.9162 10.2537C68.9526 10.2537 67.6585 10.1625 67.4482 10.1625C67.2987 10.1625 67.238 10.224 67.238 10.3164V11.0472C67.238 11.2 67.2987 11.2604 67.4482 11.2604H67.9598C68.4714 11.2604 68.9223 11.444 69.0729 11.81C69.2236 12.1771 69.3135 13.9454 69.3135 14.6785C69.3743 15.6534 69.4046 16.5997 69.4046 18.3395V20.3519H69.2843C68.9223 19.9562 66.1249 16.3865 65.5829 15.7446C64.9522 14.983 61.4925 10.5592 61.4014 10.4372C61.2811 10.2537 61.1001 10.1932 60.6796 10.1932C60.3187 10.1932 59.6868 10.2537 59.2056 10.2537C58.8739 10.2537 58.3926 10.224 58.0025 10.1932C57.6112 10.1932 57.2795 10.1625 57.2199 10.1625C57.0996 10.1625 57.04 10.2537 57.04 10.3449V11.078C57.04 11.2 57.0996 11.2604 57.2199 11.2604H57.4909C58.3331 11.2604 59.0852 11.7792 59.0852 12.8783V16.0809C59.0852 19.5287 59.0245 21.695 58.9953 22.0598C58.9042 22.7621 58.423 22.9753 58.1217 22.9753H57.4302C57.3402 22.9753 57.3099 23.0072 57.3099 23.0665V23.8601C57.3099 24.0128 57.3402 24.0733 57.3998 24.0733C57.6416 24.0733 58.9953 23.9821 59.4158 23.9821C60.2883 23.9821 61.4925 24.0733 61.7028 24.0733C61.8523 24.0733 61.8523 24.0128 61.8523 23.8909V23.1577C61.8523 23.0369 61.8523 22.9753 61.7028 22.9753H61.0709C60.7695 22.9753 60.439 22.6401 60.349 21.9378C60.2883 21.6642 60.168 18.6132 60.168 16.7832V12.6035H60.2276C60.7099 13.153 63.1464 16.4469 63.8683 17.302C64.2 17.6976 65.493 19.2551 66.8771 20.9311C68.1105 22.4269 69.1336 23.6765 69.3439 23.8909C69.4642 23.9821 69.7655 24.1964 70.0365 24.1964C70.3963 24.1964 70.4874 23.8909 70.4874 23.6172V16.4777Z" fill="#141E3C"/>
<path fill-rule="evenodd" clip-rule="evenodd" d="M77.6315 16.1726C77.6315 15.9594 77.6619 12.3292 77.6619 12.0236C77.6911 11.3829 77.9621 11.2597 78.775 11.2597H79.2866C79.4361 11.2597 79.4665 11.1685 79.4665 11.0477V10.3157C79.4665 10.2233 79.4069 10.1629 79.2866 10.1629C79.0448 10.1629 77.5112 10.2541 76.6387 10.2541C75.2243 10.2849 73.3601 10.1629 73.1791 10.1629C73.0588 10.1629 72.998 10.2233 72.998 10.3453V11.0477C72.998 11.1685 73.0284 11.2597 73.1791 11.2597H73.7199C74.9837 11.2597 75.2546 11.5653 75.2546 11.9016C75.2546 12.3292 75.3142 15.3802 75.3142 15.867V17.2101C75.3142 18.2465 75.285 22.1218 75.2546 22.3966C75.195 22.945 74.7127 22.9758 73.9605 22.9758H73.2994C73.1791 22.9758 73.1184 23.067 73.1184 23.1582V23.8309C73.1184 23.9825 73.1791 24.0737 73.2994 24.0737C73.4804 24.0737 75.2243 23.9825 76.2474 23.9825C77.6012 23.9825 79.1663 24.0737 79.4069 24.0737C79.5564 24.0737 79.5868 23.9825 79.5868 23.8594V23.1286C79.5868 23.0373 79.5564 22.9758 79.4069 22.9758H78.9549C78.0824 22.9758 77.7215 22.5482 77.6619 21.847C77.6315 21.3898 77.6315 17.8805 77.6315 17.6981V16.1726Z" fill="#141E3C"/>
<path fill-rule="evenodd" clip-rule="evenodd" d="M108.131 17.0265C108.101 18.8872 108.131 20.6875 108.101 22.1822C108.101 22.8526 107.74 22.9758 107.018 22.9758H106.657C106.537 22.9758 106.476 23.0362 106.476 23.1286V23.8309C106.476 23.9825 106.537 24.0737 106.657 24.0737C106.867 24.0737 108.402 23.9825 109.154 23.9825C110.147 23.9825 111.772 24.0737 111.982 24.0737C112.162 24.0737 112.223 24.0133 112.223 23.8594V23.1286C112.223 23.0362 112.162 22.9758 112.043 22.9758H111.26C110.659 22.9758 110.478 22.6406 110.418 22.213V18.918V18.1861C110.628 18.1256 110.899 18.1256 111.2 18.1256C112.463 18.1256 112.915 18.796 113.998 20.6875C114.269 21.1447 115.592 23.6165 116.164 24.0429C116.675 24.0133 117.397 23.9825 118.09 23.9825C118.39 23.9825 118.752 24.0133 119.022 24.0133C119.323 24.0429 119.564 24.0737 119.623 24.0737C119.745 24.0737 119.804 23.9825 119.804 23.8594V23.2494C119.804 23.067 119.774 22.9758 119.654 22.9758C119.113 22.9758 118.721 22.945 118.3 22.6406C117.729 22.213 117.036 21.2975 116.616 20.6875C115.382 18.918 114.781 17.9717 114.088 17.8201V17.7597C116.465 16.9057 117.638 15.6846 117.638 13.5799C117.638 12.8776 117.247 11.9928 116.585 11.3521C115.833 10.6817 114.479 10.1618 112.675 10.1618C112.282 10.1618 109.666 10.2541 109.304 10.2541C108.763 10.2541 106.898 10.1618 106.747 10.1618C106.627 10.1618 106.567 10.2233 106.567 10.3157V11.0477C106.567 11.1685 106.596 11.2597 106.687 11.2597H106.988C107.83 11.2597 108.101 11.5961 108.131 12.206V15.1351V17.0265ZM110.418 11.8104C110.418 11.2597 110.869 11.1389 111.32 11.1389C112.524 11.1389 113.366 11.4136 114.178 11.9324C114.72 12.2984 115.171 13.1216 115.171 14.0371C115.171 14.8295 114.66 17.2101 111.32 17.2101C110.929 17.2101 110.628 17.1793 110.418 17.1485V11.8104Z" fill="#141E3C"/>
<path fill-rule="evenodd" clip-rule="evenodd" d="M124.898 24.3484C127.636 24.3484 129.081 22.3964 129.081 20.107C129.081 18.5815 128.72 17.8199 128.117 17.1792C127.365 16.3868 126.252 16.0504 124.869 15.5317C124.297 15.3185 123.214 14.8613 122.763 14.2821C122.431 13.8842 122.282 13.2446 122.282 12.7851C122.282 12.2378 122.763 10.9267 124.417 10.9267C125.29 10.9267 125.952 11.2311 126.403 11.7487C127.035 12.4818 127.275 13.549 127.456 13.915C127.485 14.0062 127.546 14.0677 127.636 14.037L128.178 13.915C128.268 13.8842 128.298 13.8238 128.298 13.7314C128.268 13.3039 127.997 11.3223 127.997 10.3156C127.997 10.1628 127.968 10.0408 127.727 10.0408C127.485 10.0408 127.395 10.0408 127.336 10.132L127.216 10.3452C127.155 10.4991 127.004 10.4672 126.704 10.2848C126.343 10.1023 125.711 9.888 124.568 9.888C123.485 9.888 122.522 10.1628 121.74 10.8035C121.078 11.3827 120.446 12.329 120.446 13.3666C120.446 14.8613 120.807 15.8361 121.499 16.5088C122.402 17.332 123.846 17.8804 124.447 18.0947C126.042 18.7047 127.216 19.4674 127.216 21.2061C127.216 22.5184 125.771 23.28 124.808 23.28C123.695 23.28 122.702 22.6701 122.251 21.7557C121.71 20.7489 121.71 20.107 121.71 19.6806C121.71 19.5598 121.589 19.4971 121.469 19.4674L120.927 19.4059C120.807 19.4059 120.747 19.4971 120.717 19.6202C120.686 20.107 120.476 22.5481 120.386 23.4032C120.356 23.5548 120.446 23.6768 120.627 23.7384C120.867 23.8 121.018 23.7384 121.078 23.5856L121.168 23.3416C121.228 23.0976 121.409 23.1284 121.62 23.28C122.311 23.8307 123.365 24.3484 124.898 24.3484Z" fill="#141E3C"/>
<path fill-rule="evenodd" clip-rule="evenodd" d="M134.177 16.1726C134.177 15.9594 134.208 12.3292 134.208 12.0236C134.238 11.3829 134.509 11.2597 135.321 11.2597H135.832C135.983 11.2597 136.012 11.1685 136.012 11.0477V10.3157C136.012 10.2233 135.953 10.1629 135.832 10.1629C135.592 10.1629 134.057 10.2541 133.184 10.2541C131.771 10.2849 129.906 10.1629 129.725 10.1629C129.605 10.1629 129.545 10.2233 129.545 10.3453V11.0477C129.545 11.1685 129.574 11.2597 129.725 11.2597H130.267C131.531 11.2597 131.8 11.5653 131.8 11.9016C131.8 12.3292 131.861 15.3802 131.861 15.867V17.2101C131.861 18.2465 131.831 22.1218 131.8 22.3966C131.741 22.945 131.26 22.9758 130.507 22.9758H129.845C129.725 22.9758 129.665 23.067 129.665 23.1582V23.8309C129.665 23.9825 129.725 24.0737 129.845 24.0737C130.026 24.0737 131.771 23.9825 132.793 23.9825C134.147 23.9825 135.712 24.0737 135.953 24.0737C136.103 24.0737 136.133 23.9825 136.133 23.8594V23.1286C136.133 23.0373 136.103 22.9758 135.953 22.9758H135.502C134.629 22.9758 134.268 22.5482 134.208 21.847C134.177 21.3898 134.177 17.8805 134.177 17.6981V16.1726Z" fill="#141E3C"/>
<path fill-rule="evenodd" clip-rule="evenodd" d="M53.5141 33.76C56.2755 33.76 57.9317 29.9189 57.9317 27.7948C57.9317 26.4814 57.1694 25.5362 55.8944 25.5362C53.3623 25.5362 51.5532 28.8369 51.5532 31.27C51.5532 32.7384 52.4673 33.76 53.5141 33.76ZM53.2285 32.8342C52.772 32.8342 52.3526 32.466 52.3526 31.8491C52.3526 30.9405 52.8103 29.7638 53.4568 28.7206C54.4091 27.1575 55.4176 26.4232 56.2182 26.4232C56.8456 26.4232 57.1885 26.9055 57.1694 27.5052C57.1694 28.7788 55.2085 32.8342 53.2285 32.8342Z" fill="#141E3C"/>
<path fill-rule="evenodd" clip-rule="evenodd" d="M84.8771 34.2499C84.8771 34.0367 84.9075 30.4065 84.9075 30.1009C84.9379 29.4602 85.2077 29.3382 86.0206 29.3382H86.5322C86.6817 29.3382 86.7121 29.2458 86.7121 29.125V28.393C86.7121 28.3018 86.6525 28.2402 86.5322 28.2402C86.2916 28.2402 84.7568 28.3326 83.8843 28.3326C82.4699 28.3622 80.6057 28.2402 80.4247 28.2402C80.3044 28.2402 80.2437 28.3018 80.2437 28.4238V29.125C80.2437 29.2458 80.274 29.3382 80.4247 29.3382H80.9655C82.2304 29.3382 82.5002 29.6437 82.5002 29.9789C82.5002 30.4065 82.561 33.4575 82.561 33.9443V35.2874C82.561 36.3249 82.5306 40.1991 82.5002 40.4739C82.4406 41.0223 81.9594 41.0531 81.2072 41.0531H80.545C80.4247 41.0531 80.364 41.1443 80.364 41.2355V41.9082C80.364 42.0598 80.4247 42.151 80.545 42.151C80.726 42.151 82.4699 42.0598 83.493 42.0598C84.8468 42.0598 86.4119 42.151 86.6525 42.151C86.802 42.151 86.8324 42.0598 86.8324 41.9378V41.207C86.8324 41.1146 86.802 41.0531 86.6525 41.0531H86.2005C85.328 41.0531 84.9682 40.6267 84.9075 39.9243C84.8771 39.4671 84.8771 35.9578 84.8771 35.7754V34.2499Z" fill="#141E3C"/>
<path fill-rule="evenodd" clip-rule="evenodd" d="M89.2522 35.105C89.2219 36.9657 89.2522 38.766 89.2219 40.2595C89.2219 40.9299 88.8609 41.0531 88.1391 41.0531H87.7782C87.6579 41.0531 87.5972 41.1146 87.5972 41.207V41.9082C87.5972 42.0598 87.6579 42.151 87.7782 42.151C87.9884 42.151 89.5232 42.0598 90.2754 42.0598C91.2671 42.0598 92.8929 42.151 93.1032 42.151C93.2831 42.151 93.3438 42.0906 93.3438 41.9378V41.207C93.3438 41.1146 93.2831 41.0531 93.1639 41.0531H92.3813C91.7798 41.0531 91.5988 40.7179 91.5392 40.2915V36.9953V36.2634C91.7494 36.2029 92.0193 36.2029 92.3206 36.2029C93.5844 36.2029 94.0352 36.8733 95.1191 38.766C95.389 39.222 96.7135 41.6938 97.2846 42.1202C97.7962 42.0906 98.5181 42.0598 99.2095 42.0598C99.5109 42.0598 99.8718 42.0906 100.143 42.0906C100.444 42.1202 100.684 42.151 100.744 42.151C100.865 42.151 100.925 42.0598 100.925 41.9378V41.3279C100.925 41.1443 100.895 41.0531 100.775 41.0531C100.233 41.0531 99.8414 41.0223 99.4209 40.7179C98.8498 40.2915 98.1571 39.3759 97.7355 38.766C96.5032 36.9953 95.9006 36.0502 95.2091 35.8974V35.837C97.586 34.983 98.7587 33.7619 98.7587 31.6583C98.7587 30.9549 98.3674 30.0701 97.7063 29.4294C96.9541 28.759 95.6004 28.2402 93.7958 28.2402C93.4034 28.2402 90.787 28.3326 90.4249 28.3326C89.8841 28.3326 88.0188 28.2402 87.8681 28.2402C87.7478 28.2402 87.6871 28.3018 87.6871 28.393V29.125C87.6871 29.2458 87.7175 29.3382 87.8085 29.3382H88.1088C88.9509 29.3382 89.2219 29.6734 89.2522 30.2833V33.2124V35.105ZM91.7123 29.8877C91.7123 29.3382 92.1632 29.2173 92.6141 29.2173C93.8182 29.2173 94.6604 29.4909 95.4722 30.0097C96.0141 30.3757 96.465 31.1989 96.465 32.1144C96.465 32.9068 95.9534 35.2874 92.6141 35.2874C92.2228 35.2874 91.9226 35.2566 91.7123 35.2258V29.8877Z" fill="#141E3C"/>
<path fill-rule="evenodd" clip-rule="evenodd" d="M112.191 37.9108C112.191 37.392 112.762 37.27 113.063 37.27H113.575C113.666 37.27 113.724 37.1777 113.724 37.0865V36.3556C113.724 36.2633 113.666 36.2029 113.545 36.2029C113.425 36.2029 112.07 36.2633 110.957 36.2633C109.332 36.2633 107.858 36.2029 107.678 36.2029C107.558 36.2029 107.528 36.2633 107.528 36.3556V37.0865C107.528 37.1777 107.558 37.2404 107.678 37.2404H108.4C109.183 37.2404 109.874 37.4536 109.874 38.1559V39.2835C109.874 39.8935 109.814 40.2914 109.424 40.5958C108.941 40.9926 107.979 41.2662 106.926 41.2662C106.083 41.2662 104.88 40.809 104.038 39.8935C102.865 38.6439 102.203 36.9041 102.203 34.5554C102.203 33.1838 102.865 31.5659 103.767 30.5592C104.88 29.3381 106.054 29.004 106.986 29.004C108.37 29.004 109.213 29.614 110.025 30.4668C110.747 31.1988 111.258 32.1451 111.469 32.6331C111.559 32.8771 111.619 32.9067 111.709 32.8771L112.282 32.6947C112.372 32.6639 112.401 32.6023 112.401 32.4507C112.341 31.9011 111.95 29.0633 111.95 28.9117C111.95 28.6985 111.89 28.5754 111.619 28.5754C111.379 28.5754 111.289 28.6677 111.228 28.7897L111.077 29.0633C111.018 29.1545 110.898 29.1545 110.657 28.9413C110.085 28.5149 108.671 27.9654 107.227 27.9654C105.091 27.9654 103.255 28.6073 101.842 29.8272C100.397 31.1076 99.6157 32.9694 99.6157 34.8301C99.6157 37.2096 100.217 38.8571 101.42 40.1991C102.835 41.785 105.241 42.4269 106.806 42.4269C108.731 42.4269 110.356 41.9993 111.95 41.2069C112.161 41.1146 112.282 41.0222 112.282 40.8706C112.282 40.7178 112.191 40.5343 112.191 40.2606V37.9108Z" fill="#141E3C"/>
<path fill-rule="evenodd" clip-rule="evenodd" d="M117.707 34.2499C117.707 34.0367 117.737 30.4065 117.737 30.1009C117.766 29.4602 118.037 29.3382 118.85 29.3382H119.361C119.511 29.3382 119.542 29.2458 119.542 29.125V28.393C119.542 28.3018 119.481 28.2402 119.361 28.2402C119.12 28.2402 117.586 28.3326 116.714 28.3326C115.299 28.3622 113.434 28.2402 113.254 28.2402C113.134 28.2402 113.073 28.3018 113.073 28.4238V29.125C113.073 29.2458 113.104 29.3382 113.254 29.3382H113.795C115.059 29.3382 115.33 29.6437 115.33 29.9789C115.33 30.4065 115.389 33.4575 115.389 33.9443V35.2874C115.389 36.3249 115.36 40.1991 115.33 40.4739C115.269 41.0223 114.788 41.0531 114.036 41.0531H113.375C113.254 41.0531 113.194 41.1443 113.194 41.2355V41.9082C113.194 42.0598 113.254 42.151 113.375 42.151C113.554 42.151 115.299 42.0598 116.323 42.0598C117.676 42.0598 119.24 42.151 119.481 42.151C119.632 42.151 119.662 42.0598 119.662 41.9378V41.207C119.662 41.1146 119.632 41.0531 119.481 41.0531H119.03C118.158 41.0531 117.797 40.6267 117.737 39.9243C117.707 39.4671 117.707 35.9578 117.707 35.7754V34.2499Z" fill="#141E3C"/>
<path fill-rule="evenodd" clip-rule="evenodd" d="M133.967 34.555C133.967 33.3043 133.906 31.382 134.056 29.9785C134.117 29.5509 134.267 29.3389 135.019 29.3389H135.32C135.441 29.3389 135.5 29.2465 135.5 29.1245V28.4849C135.5 28.3025 135.441 28.2398 135.29 28.2398C135.08 28.2398 134.026 28.3321 133.394 28.3321C132.432 28.3321 131.139 28.2398 130.927 28.2398C130.778 28.2398 130.717 28.3025 130.717 28.3937V29.1245C130.717 29.2773 130.778 29.3389 130.927 29.3389H131.439C131.951 29.3389 132.401 29.5224 132.552 29.8873C132.703 30.2544 132.793 32.0227 132.793 32.7558C132.853 33.7307 132.884 34.677 132.884 36.4168V38.4292H132.763C132.401 38.0335 129.604 34.4638 129.062 33.8219C128.43 33.0603 124.971 28.6377 124.881 28.5145C124.76 28.3321 124.58 28.2705 124.159 28.2705C123.798 28.2705 123.166 28.3321 122.685 28.3321C122.354 28.3321 121.872 28.3025 121.482 28.2705C121.09 28.2705 120.759 28.2398 120.699 28.2398C120.579 28.2398 120.518 28.3321 120.518 28.4233V29.1553C120.518 29.2773 120.579 29.3389 120.699 29.3389H120.97C121.812 29.3389 122.564 29.8565 122.564 30.9556V34.1582C122.564 37.606 122.504 39.7723 122.474 40.1371C122.383 40.8394 121.902 41.0526 121.602 41.0526H120.909C120.819 41.0526 120.789 41.0845 120.789 41.1438V41.9385C120.789 42.0901 120.819 42.1506 120.879 42.1506C121.121 42.1506 122.474 42.0594 122.895 42.0594C123.767 42.0594 124.971 42.1506 125.182 42.1506C125.331 42.1506 125.331 42.0901 125.331 41.9682V41.235C125.331 41.1142 125.331 41.0526 125.182 41.0526H124.55C124.249 41.0526 123.918 40.7174 123.828 40.0151C123.767 39.7415 123.647 36.6905 123.647 34.8605V30.6808H123.708C124.189 31.2303 126.626 34.5253 127.347 35.3793C127.679 35.7749 128.972 37.3324 130.356 39.0084C131.59 40.5042 132.613 41.7538 132.823 41.9682C132.943 42.0594 133.245 42.2737 133.515 42.2737C133.877 42.2737 133.967 41.9682 133.967 41.6945V34.555Z" fill="#141E3C"/>
<path d="M60.0561 26.5785H58.3617C58.2661 26.5785 58.22 26.4839 58.2582 26.3493L58.3336 26.0198C58.3718 25.8853 58.5034 25.5763 58.6563 25.5763H60.3125C60.8836 23.9151 61.4379 22.5641 62.4465 21.4251C62.9794 20.8071 64.0273 20.1116 65.2641 20.1116C66.3682 20.1116 66.9777 20.7889 66.9777 21.2518C66.9777 21.8503 66.5965 22.1399 66.2165 22.1399C65.6071 22.1399 65.4362 21.7922 65.3788 21.3681C65.3597 21.1742 65.1686 20.8071 64.5985 20.8071C62.8276 20.8071 62.4454 23.3587 61.8157 25.5204C61.8157 25.5204 64.4625 25.5923 66.6224 25.5923C68.9487 25.5923 70.1944 25.5079 70.4429 25.5079C70.6925 25.5079 70.7206 25.5923 70.7206 25.704V26.3505C70.7206 26.4907 70.6925 26.6024 70.4991 26.6024H69.169C68.3943 26.6024 68.0064 26.8555 68.0064 27.3333C68.0064 27.5579 68.0345 27.8942 68.1178 28.2876C68.283 29.2989 69.3084 32.6395 69.8065 34.2117C70.1394 35.2789 71.7449 40.1085 72.3813 41.821C73.0188 40.5018 75.1787 34.7179 75.4002 34.0715C75.6768 33.3133 76.7292 30.0844 77.1441 28.8496C77.3667 28.1473 77.532 27.6422 77.532 27.2489C77.532 26.9114 77.3386 26.6024 76.646 26.6024H75.9264C75.8151 26.6024 75.7881 26.5181 75.7881 26.3505V25.704C75.7881 25.5638 75.8151 25.5079 75.9534 25.5079C76.203 25.5079 77.4769 25.5923 79.2208 25.5923C81.2424 25.5923 81.935 25.5079 82.1846 25.5079C82.3499 25.5079 82.378 25.5638 82.378 25.704V26.4075C82.378 26.5181 82.3499 26.6024 82.1846 26.6024H81.4369C80.5228 26.6024 79.9966 27.0528 79.4704 27.6981C78.7508 28.5965 76.5358 34.3519 76.0647 35.5331C75.7319 36.4589 72.1598 45.3873 72.0215 45.6689C71.9113 45.8924 71.7719 46.0327 71.6336 46.0327C71.4132 46.0327 71.3019 45.7522 71.1636 45.3873C70.2776 42.8038 68.0346 36.4019 67.6748 35.3918L67.397 34.4375C66.7325 32.4445 65.4317 28.3708 65.0719 27.5294C64.7941 26.8841 64.5176 26.6024 63.9363 26.6024L61.3615 26.5785C60.8668 28.1416 59.9898 31.4457 59.0386 33.9164C57.8771 36.9287 56.5256 39.071 54.4883 39.071C53.7271 39.071 53.1177 38.5499 53.1177 37.932C53.1177 37.4873 53.4415 37.102 53.9362 37.102C54.4883 37.102 54.7739 37.6424 54.8312 37.9707C54.8694 38.1646 55.0021 38.298 55.155 38.298C56.0691 38.298 57.0968 36.6767 58.1244 33.1058L60.0561 26.5785Z" fill="#141E3C"/>
<path d="M137.495 10.1178C137.532 10.0904 137.521 10.0904 137.612 10.0995C138.081 10.1531 139.787 10.3162 143.092 10.3162H144.296C145.279 10.3162 146.338 10.2751 147.485 10.2272C148.06 10.209 151.594 10.2535 152.317 10.2535C152.978 10.2535 155.025 10.1622 155.235 10.1622C155.355 10.1622 155.445 10.2238 155.445 10.3766V11.047C155.445 11.169 155.416 11.2602 155.235 11.2602H154.784C154.242 11.2602 154.212 11.5965 154.332 11.779C154.513 12.0537 157.01 16.1115 157.491 16.8435C157.942 16.0807 160.44 12.3889 160.56 12.1461C160.8 11.6581 160.831 11.2602 160.169 11.2602H159.687C159.537 11.2602 159.477 11.169 159.477 11.047V10.3766C159.477 10.2535 159.537 10.1622 159.687 10.1622C159.868 10.1622 161.373 10.2535 162.275 10.2535C162.816 10.2535 163.869 10.1622 164.05 10.1622C164.201 10.1622 164.26 10.2238 164.26 10.4074V11.047C164.26 11.1998 164.201 11.2602 164.08 11.2602H163.779C163.298 11.2602 162.967 11.3526 162.696 11.5053C162.245 11.7493 158.755 16.7215 158.063 17.7898V20.3528C158.093 21.1144 158.063 21.9376 158.123 22.3047C158.183 22.9455 158.664 22.9751 159.206 22.9751H159.597C159.748 22.9751 159.808 23.0367 159.808 23.1279V23.8599C159.808 23.9818 159.748 24.0731 159.567 24.0731C159.387 24.0731 157.702 23.9818 156.709 23.9818C156.047 23.9818 154.303 24.0731 154.122 24.0731C153.971 24.0731 153.912 24.0138 153.912 23.8302V23.1587C153.912 23.0663 153.971 22.9751 154.091 22.9751H154.543C155.506 22.9751 155.686 22.7927 155.716 22.3651C155.746 22.0915 155.746 20.9924 155.746 19.1921V18.0942C155.476 17.5458 151.806 12.0845 151.324 11.6273C151.069 11.3697 150.643 11.2853 150.371 11.2659C150.55 12.0925 150.793 13.1768 150.889 13.7012C150.918 13.8232 150.859 13.8848 150.739 13.9452L150.227 14.098C150.046 14.1596 149.956 14.1288 149.896 13.976C149.536 13.2133 149.024 12.2065 148.392 11.6273C147.64 11.3526 145.438 11.3229 144.898 11.3229V16.4467C144.898 19.6505 144.898 21.9376 144.928 22.1827C144.987 22.6707 145.138 22.9751 145.619 22.9751H146.763C146.914 22.9751 146.973 23.0663 146.973 23.2499V23.8906C146.973 23.9818 146.914 24.0731 146.763 24.0731C146.551 24.0731 144.687 23.9818 143.694 23.9818C142.851 23.9818 140.896 24.0731 140.655 24.0731C140.475 24.0731 140.415 23.9818 140.415 23.7994V23.1895C140.415 23.0367 140.475 22.9751 140.596 22.9751H141.799C142.25 22.9751 142.46 22.7311 142.49 22.4883C142.581 21.3276 142.581 19.7109 142.581 17.881V11.3229C142.009 11.3229 140.32 11.291 139.207 11.5965C138.455 12.1769 137.823 13.1528 137.432 13.9452C137.371 14.0684 137.281 14.1596 137.161 14.098L136.619 13.8848C136.469 13.8232 136.469 13.7012 136.499 13.5792C136.673 13.0251 137.196 11.1439 137.441 10.2204C137.453 10.1725 137.458 10.1429 137.495 10.1178Z" fill="#141E3C"/>
<path d="M147.354 35.8065H151.446C151.325 35.379 149.911 30.8025 149.85 30.5585C149.791 30.3749 149.76 30.2541 149.67 30.2541C149.58 30.2541 149.52 30.3453 149.43 30.5893C149.34 30.8344 147.504 35.501 147.354 35.8065ZM141.109 34.2502V35.7757C141.109 35.9582 141.109 39.4675 141.14 39.9236C141.2 40.627 141.561 41.0534 142.434 41.0534H142.781C143.292 41.0534 143.774 40.7479 144.015 40.4127C144.225 40.1687 145.759 36.5077 146.482 34.9822C146.692 34.5546 148.467 30.4068 148.647 29.8881C148.708 29.7045 148.888 29.3693 148.677 29.277C148.617 29.2177 148.527 29.0637 148.557 28.9725C148.527 28.9121 148.588 28.8198 148.857 28.7582C149.43 28.667 150.272 28.1186 150.543 27.8746C150.602 27.7526 150.723 27.6602 150.904 27.6602C151.085 27.6602 151.144 27.7834 151.205 27.9966C151.626 29.2177 153.16 33.5798 153.552 34.7998C154.002 36.3253 155.297 39.9236 155.507 40.2291C155.898 40.7787 156.41 41.0534 156.92 41.0534H157.492C157.613 41.0534 157.643 41.1446 157.643 41.2358V41.8766C157.643 41.9678 157.613 42.1502 157.432 42.1502C157.071 42.1502 155.476 42.059 154.785 42.059C154.213 42.059 152.438 42.1502 152.047 42.1502C151.836 42.1502 151.807 41.9997 151.807 41.8766V41.2358C151.807 41.1446 151.836 41.0534 151.956 41.0534H152.438C152.799 41.0534 152.92 40.7787 152.92 40.5335C152.799 39.9236 151.986 37.4837 151.746 36.7813H146.902C146.782 37.1485 145.819 39.6807 145.699 40.0467C145.518 40.6567 145.609 41.0534 146.241 41.0534H146.993C147.173 41.0534 147.203 41.1446 147.203 41.2666V41.9382C147.203 42.059 147.173 42.1502 147.022 42.1502C146.782 42.1502 145.187 42.059 144.706 42.059H139.726C138.703 42.059 136.958 42.1502 136.777 42.1502C136.657 42.1502 136.597 42.059 136.597 41.9085V41.2358C136.597 41.1446 136.657 41.0534 136.777 41.0534H137.44C138.192 41.0534 138.673 41.0226 138.734 40.4742C138.763 40.1995 138.793 36.3253 138.793 35.2878V33.9447C138.793 33.4567 138.734 30.4068 138.734 29.9793C138.734 29.6441 138.463 29.3385 137.199 29.3385H136.657C136.507 29.3385 136.477 29.2462 136.477 29.1253V28.423C136.477 28.3021 136.537 28.2394 136.657 28.2394C136.838 28.2394 138.703 28.3626 140.117 28.3318C140.989 28.3318 142.524 28.2394 142.764 28.2394C142.885 28.2394 142.945 28.3021 142.945 28.3933V29.1253C142.945 29.2462 142.915 29.3385 142.764 29.3385H142.253C141.441 29.3385 141.17 29.4605 141.14 30.1013C141.14 30.4068 141.109 34.0359 141.109 34.2502Z" fill="#141E3C"/>
<path d="M86.1895 10.3761V11.0773C86.1895 11.2004 86.0984 11.2597 85.9792 11.2597H85.2866C84.8953 11.2597 84.4445 11.3224 84.4445 11.7192C84.4445 12.4203 84.956 13.6095 85.7678 16.1725C86.0084 16.9353 87.1216 20.4743 87.3026 20.9622H87.3925C87.5724 20.3215 89.0476 16.5385 89.1971 16.0813C90.3406 12.694 90.7319 11.8719 90.7319 11.5652C90.7319 11.4136 90.6116 11.2597 90.1 11.2597H89.7694C89.6491 11.2597 89.5884 11.2004 89.5884 11.0476V10.3453C89.5884 10.2541 89.6491 10.1629 89.7694 10.1629C89.9493 10.1629 91.5144 10.2541 92.2059 10.2541H96.8045L103.544 10.2233C103.845 10.2233 104.235 10.1629 104.356 10.1629C104.416 10.1629 104.477 10.2233 104.537 10.5893C104.597 10.8641 105.44 13.4875 105.499 13.7007C105.53 13.8227 105.53 13.8843 105.469 13.9151L104.988 14.1283C104.928 14.159 104.808 14.159 104.718 14.0063C104.657 13.9151 103.213 12.206 102.702 11.7192C102.341 11.3828 101.86 11.2597 101.558 11.2597L98.3696 11.2004V16.3857C98.5495 16.3857 100.325 16.2945 100.566 16.2341C101.347 16.0198 101.648 15.5933 101.648 14.647C101.648 14.525 101.679 14.4942 101.799 14.4942L102.461 14.525C102.581 14.525 102.671 14.5866 102.641 14.7086C102.581 14.9834 102.581 16.6001 102.581 16.8737C102.581 17.5453 102.671 18.4904 102.702 18.8872C102.702 19.0092 102.641 19.0411 102.551 19.0411L101.919 19.1004C101.829 19.1004 101.769 19.1004 101.739 18.9795C101.589 18.2168 101.408 17.7288 100.625 17.5453C99.7234 17.332 98.6698 17.332 98.3696 17.332V18.3696C98.3696 19.4367 98.4292 21.2062 98.4292 21.603C98.4292 23.0362 99.3017 23.1285 100.596 23.1285C101.919 23.1285 102.761 23.0977 103.785 22.2745C104.025 22.091 105.078 20.7171 105.379 20.2303C105.53 20.0159 105.68 19.9863 105.77 20.0467L106.251 20.3215C106.311 20.3523 106.372 20.4435 106.341 20.5347L105.259 23.7681C105.199 23.922 105.048 24.0737 104.928 24.0737C104.718 24.0737 103.123 23.9825 96.8045 23.9825C96.2626 23.9825 94.6087 24.0737 94.2477 24.0737C94.0971 24.0737 94.0667 23.9825 94.0667 23.8593V23.1581C94.0667 23.0362 94.1274 22.9757 94.2781 22.9757H94.5491C95.9624 22.9757 96.0523 22.8526 96.0523 22.4262V17.82V15.9285C96.0523 14.3107 96.0231 12.3291 95.9928 12.0236C95.9028 11.3828 95.7218 11.2597 94.5187 11.2597H94.2826H94.2174H93.8014C93.2291 11.2597 92.8074 11.4444 92.5376 11.7192C91.9653 12.2983 90.3406 16.2945 90.0404 17.0881C89.7694 17.7288 87.3026 23.7077 87.062 24.1045C86.9709 24.2572 86.8214 24.3484 86.5807 24.3484C86.3401 24.3484 86.1895 24.1352 86.0984 23.8913C85.4373 22.091 83.8429 17.6672 83.6023 16.9968L83.3909 16.3253C82.8805 14.9207 81.9776 12.1467 81.7662 11.8411C81.5268 11.5048 81.285 11.2597 80.8949 11.2597H80.5935C80.4732 11.2597 80.4429 11.1685 80.4429 11.0773V10.3156C80.4429 10.2233 80.5036 10.1629 80.6239 10.1629C80.7746 10.1629 82.4285 10.2541 83.211 10.2541C83.9329 10.2541 85.7678 10.1629 85.9489 10.1629C86.1288 10.1629 86.1895 10.2233 86.1895 10.3761Z" fill="#141E3C"/>
<path d="M206.004 29.0581C206.033 30.6896 206.093 33.6529 206.093 34.1956C206.093 35.7678 206.629 36.3721 207.285 36.5522C207.762 36.6754 208.476 36.7951 209.609 36.7951C210.146 36.7951 211.519 36.7324 212.113 36.6754C212.65 36.6138 213.781 36.3094 214.557 35.6458C215.092 35.1624 216.761 33.1672 217.327 32.442C217.448 32.2904 217.538 32.2619 217.658 32.3223L218.132 32.6233C218.222 32.6849 218.252 32.775 218.193 32.9266L216.761 37.4586C216.672 37.73 216.464 37.9124 216.105 37.9124C215.958 37.9124 215.302 37.8816 213.455 37.8531C211.576 37.8531 208.507 37.8223 203.53 37.8223C202.426 37.8223 201.622 37.8531 200.998 37.8531C200.4 37.8816 199.983 37.9124 199.715 37.9124C199.537 37.9124 199.477 37.8531 199.477 37.6707V36.9467C199.477 36.7654 199.537 36.7039 199.776 36.7039H200.788C202.159 36.7039 202.279 36.5237 202.279 35.4053V25.2512C202.279 22.7714 202.218 19.0249 202.159 18.6019C202.041 17.7867 201.743 17.5439 200.847 17.5439H199.715C199.597 17.5439 199.537 17.4834 199.537 17.3341V16.5463C199.537 16.3958 199.566 16.3365 199.715 16.3365C200.371 16.3365 201.445 16.4562 203.889 16.4265H204.723C206.033 16.4265 212.888 16.3661 214.199 16.3661C214.677 16.3661 215.242 16.3365 215.391 16.3365C215.541 16.3365 215.6 16.3958 215.63 16.5177C215.748 16.9111 216.881 21.0179 217.001 21.3223C217.06 21.5036 217.031 21.5925 216.912 21.6552L216.375 21.8969C216.286 21.9266 216.194 21.8969 216.105 21.7453C215.987 21.564 213.544 18.7843 212.828 18.3613C212.201 17.9988 211.399 17.6054 210.563 17.5735L206.033 17.4527L205.972 26.1872C206.867 26.1872 209.014 26.1268 209.373 26.0367C210.028 25.9159 210.386 25.6742 210.742 24.9491C210.921 24.5546 211.22 23.8021 211.22 23.256C211.22 23.0758 211.338 23.0131 211.456 23.0131L212.233 23.0758C212.353 23.0758 212.442 23.1362 212.411 23.3164C212.353 23.8021 212.353 25.795 212.353 26.5806C212.353 27.7903 212.471 29.2394 212.531 29.9041C212.531 30.0557 212.471 30.0854 212.29 30.1173L211.635 30.237C211.519 30.2667 211.456 30.2074 211.399 30.0261C211.278 29.5427 211.07 28.8768 210.921 28.5154C210.653 27.9089 210.086 27.4859 209.431 27.4266C208.357 27.3046 206.928 27.2442 205.972 27.2442L206.004 29.0581Z" fill="#141E3C"/>
<path d="M223.3 24.1624C223.3 29.2998 223.541 33.5309 223.599 34.4669C223.659 35.9776 224.016 36.7039 225.089 36.7039H225.865C226.102 36.7039 226.102 36.8236 226.102 36.9752V37.6707C226.102 37.8531 226.102 37.9124 225.865 37.9124C225.566 37.9124 223.777 37.8212 222.645 37.8212C221.872 37.8212 219.844 37.9124 219.547 37.9124C219.427 37.9124 219.367 37.8531 219.367 37.6399V36.884C219.367 36.8236 219.427 36.7039 219.547 36.7039H220.56C221.335 36.7039 221.752 36.0392 221.899 34.1956C221.931 33.6529 222.108 29.4195 222.108 24.5854V20.7477C222.108 18.936 221.095 17.5439 219.784 17.5439H218.83C218.712 17.5154 218.651 17.4527 218.651 17.3341V16.5177C218.651 16.3957 218.712 16.3365 218.83 16.3365C218.98 16.3365 219.218 16.3661 219.755 16.3957C220.292 16.4265 221.095 16.4265 222.407 16.4265C222.913 16.4265 223.362 16.3957 223.719 16.3661C224.107 16.3661 224.375 16.3365 224.554 16.3365C224.91 16.3365 225.089 16.4265 225.268 16.6078C225.566 16.9111 231.407 24.3436 232.004 25.1896C232.42 25.6742 237.068 31.5379 237.546 32.141H237.666V28.9965C237.666 26.3389 237.666 24.8282 237.605 23.3164C237.546 22.1671 237.428 19.2062 237.278 18.6931C237.068 17.9669 236.412 17.5439 235.698 17.5439H234.744C234.565 17.5439 234.565 17.4242 234.565 17.2725V16.5782C234.565 16.3957 234.565 16.3365 234.806 16.3365C235.163 16.3365 236.116 16.4265 238.143 16.4265C239.93 16.4265 240.647 16.3365 241.003 16.3365C241.242 16.3365 241.302 16.4562 241.302 16.5462V17.244C241.302 17.4241 241.241 17.5439 241.125 17.5439H240.289C239.691 17.5439 239.393 18.0273 239.303 19.1458C239.156 21.2014 238.857 26.2773 238.857 29.3614V37.3401C238.857 37.7631 238.857 38.1849 238.5 38.1849C238.083 38.1849 237.725 37.9443 237.487 37.7015C237.249 37.3982 235.64 35.5261 233.791 33.288C231.706 30.6896 229.381 27.8496 229.024 27.3673C228.605 26.9432 223.838 20.8993 223.48 20.4763H223.3V24.1624Z" fill="#141E3C"/>
<path d="M263.077 34.831C263.077 35.254 263.195 35.555 263.195 35.7979C263.195 36.0396 263.018 36.1582 262.722 36.2802C260.278 37.5503 257.833 38.2754 254.257 38.2754C251.338 38.2754 247.701 37.247 245.673 34.7695C243.826 32.7161 242.931 30.1166 242.931 26.5491C242.931 23.7694 244.124 20.8689 246.329 18.9364C248.476 17.0004 251.217 15.972 254.793 15.972C257.655 15.972 259.919 16.8784 260.871 17.6059C261.23 17.8761 261.41 17.7871 261.588 17.5443L261.946 17.0609C262.094 16.8499 262.184 16.7587 262.361 16.7587C262.66 16.7587 262.722 16.9412 262.722 17.1829L263.018 23.2267C263.018 23.4684 263.018 23.6178 262.899 23.6497L262.184 23.7694C262.005 23.8014 261.946 23.7079 261.887 23.5277C261.47 22.3192 260.693 20.6272 259.502 19.3582C258.489 18.2706 256.821 17.2433 254.554 17.2433C252.706 17.2433 251.096 17.7244 249.487 19.5999C248.059 21.2315 247.045 23.7694 247.045 26.4294C247.045 29.9946 248 33.0786 249.727 34.831C251.158 36.2209 252.586 36.8844 254.495 36.8844C256.402 36.8844 257.534 36.6439 258.547 36.1C259.204 35.7352 259.264 34.8903 259.264 33.3192V31.1119C259.264 30.0254 258.966 29.7232 258.19 29.7232H256.938C256.76 29.7232 256.7 29.6024 256.7 29.4507V28.7552C256.7 28.574 256.76 28.5158 256.879 28.5158C257.236 28.5158 258.668 28.6047 261.112 28.6047C263.616 28.6047 264.628 28.5158 264.928 28.5158C265.163 28.5158 265.224 28.574 265.224 28.7256V29.4815C265.224 29.6628 265.163 29.7232 264.985 29.7232H263.972C263.436 29.7232 263.077 29.9649 263.077 30.8406V34.831Z" fill="#141E3C"/>
<path d="M272.952 28.0304C272.952 28.3325 273.01 35.2828 273.01 35.6157C273.01 36.5837 273.488 36.7034 274.203 36.7034H275.455C275.575 36.7034 275.694 36.765 275.694 36.9143V37.6702C275.694 37.8527 275.575 37.912 275.395 37.912C275.036 37.912 273.845 37.8219 271.043 37.8219C268.064 37.8219 266.753 37.912 266.456 37.912C266.275 37.912 266.216 37.8527 266.216 37.701V36.8847C266.216 36.765 266.275 36.7034 266.456 36.7034H267.647C268.243 36.7034 268.899 36.6441 269.018 35.8289C269.077 35.4059 269.138 28.8764 269.138 27.2448V25.1287C269.138 24.4048 269.077 18.9652 269.048 18.5707C268.959 17.8467 268.66 17.5446 267.826 17.5446H266.275C266.097 17.5446 266.037 17.483 266.037 17.3336V16.5469C266.037 16.3953 266.097 16.336 266.216 16.336C266.575 16.336 268.125 16.4261 271.043 16.4261C273.905 16.4261 274.858 16.336 275.277 16.336C275.455 16.336 275.513 16.4569 275.513 16.6074V17.3017C275.513 17.483 275.395 17.5446 275.277 17.5446H274.144C273.488 17.5446 273.01 17.7874 273.01 18.362C273.01 18.6619 272.952 25.3089 272.952 25.6749V28.0304Z" fill="#141E3C"/>
<path d="M281.909 24.1624C281.909 29.2998 282.146 33.5309 282.205 34.4669C282.266 35.9776 282.622 36.7039 283.695 36.7039H284.47C284.71 36.7039 284.71 36.8236 284.71 36.9752V37.6707C284.71 37.8531 284.71 37.9124 284.47 37.9124C284.173 37.9124 282.386 37.8212 281.253 37.8212C280.477 37.8212 278.451 37.9124 278.152 37.9124C278.034 37.9124 277.973 37.8531 277.973 37.6399V36.884C277.973 36.8236 278.034 36.7039 278.152 36.7039H279.166C279.941 36.7039 280.358 36.0392 280.508 34.1956C280.537 33.6529 280.716 29.4195 280.716 24.5854V20.7477C280.716 18.936 279.703 17.5439 278.39 17.5439H277.438C277.318 17.5154 277.259 17.4527 277.259 17.3341V16.5177C277.259 16.3957 277.318 16.3365 277.438 16.3365C277.585 16.3365 277.826 16.3661 278.361 16.3957C278.897 16.4265 279.703 16.4265 281.014 16.4265C281.521 16.4265 281.967 16.3957 282.323 16.3661C282.711 16.3661 282.98 16.3365 283.158 16.3365C283.519 16.3365 283.695 16.4265 283.876 16.6078C284.173 16.9111 290.015 24.3436 290.609 25.1896C291.028 25.6742 295.677 31.5379 296.154 32.141H296.272V28.9965C296.272 26.3389 296.272 24.8282 296.214 23.3164C296.154 22.1671 296.034 19.2062 295.884 18.6931C295.677 17.9669 295.021 17.5439 294.305 17.5439H293.352C293.175 17.5439 293.175 17.4242 293.175 17.2725V16.5782C293.175 16.3957 293.175 16.3365 293.411 16.3365C293.767 16.3365 294.722 16.4265 296.748 16.4265C298.537 16.4265 299.253 16.3365 299.609 16.3365C299.849 16.3365 299.907 16.4562 299.907 16.5462V17.244C299.907 17.4241 299.849 17.5439 299.73 17.5439H298.894C298.298 17.5439 298.001 18.0273 297.912 19.1458C297.764 21.2014 297.464 26.2773 297.464 29.3614V37.3401C297.464 37.7631 297.464 38.1849 297.108 38.1849C296.689 38.1849 296.333 37.9443 296.092 37.7015C295.855 37.3982 294.246 35.5261 292.398 33.288C290.313 30.6896 287.988 27.8496 287.628 27.3673C287.213 26.9432 282.445 20.8993 282.087 20.4763H281.909V24.1624Z" fill="#141E3C"/>
<path d="M308.463 29.0581C308.49 30.6896 308.552 33.6529 308.552 34.1956C308.552 35.7678 309.087 36.3721 309.744 36.5522C310.221 36.6754 310.935 36.7951 312.068 36.7951C312.603 36.7951 313.975 36.7324 314.571 36.6754C315.107 36.6138 316.239 36.3094 317.016 35.6458C317.552 35.1624 319.22 33.1672 319.787 32.442C319.907 32.2904 319.996 32.2619 320.115 32.3223L320.59 32.6233C320.68 32.6849 320.71 32.775 320.653 32.9266L319.22 37.4586C319.131 37.73 318.921 37.9124 318.565 37.9124C318.417 37.9124 317.761 37.8816 315.912 37.8531C314.036 37.8531 310.966 37.8223 305.988 37.8223C304.886 37.8223 304.082 37.8531 303.456 37.8531C302.86 37.8816 302.44 37.9124 302.173 37.9124C301.994 37.9124 301.937 37.8531 301.937 37.6707V36.9467C301.937 36.7654 301.994 36.7039 302.233 36.7039H303.248C304.617 36.7039 304.738 36.5237 304.738 35.4053V25.2512C304.738 22.7714 304.675 19.0249 304.617 18.6019C304.497 17.7867 304.2 17.5439 303.306 17.5439H302.173C302.055 17.5439 301.994 17.4834 301.994 17.3341V16.5463C301.994 16.3958 302.025 16.3365 302.173 16.3365C302.828 16.3365 303.903 16.4562 306.346 16.4265H307.181C308.49 16.4265 315.348 16.3661 316.657 16.3661C317.134 16.3661 317.699 16.3365 317.851 16.3365C317.997 16.3365 318.058 16.3958 318.087 16.5177C318.207 16.9111 319.34 21.0179 319.459 21.3223C319.519 21.5036 319.488 21.5925 319.37 21.6552L318.832 21.8969C318.742 21.9266 318.653 21.8969 318.565 21.7453C318.444 21.564 316.001 18.7843 315.285 18.3613C314.661 17.9988 313.857 17.6054 313.023 17.5735L308.49 17.4527L308.432 26.1872C309.325 26.1872 311.471 26.1268 311.83 26.0367C312.485 25.9159 312.843 25.6742 313.201 24.9491C313.38 24.5546 313.677 23.8021 313.677 23.256C313.677 23.0758 313.795 23.0131 313.915 23.0131L314.691 23.0758C314.812 23.0758 314.899 23.1362 314.87 23.3164C314.812 23.8021 314.812 25.795 314.812 26.5806C314.812 27.7903 314.928 29.2394 314.988 29.9041C314.988 30.0557 314.928 30.0854 314.75 30.1173L314.094 30.237C313.975 30.2667 313.915 30.2074 313.857 30.0261C313.737 29.5427 313.528 28.8768 313.38 28.5154C313.113 27.9089 312.546 27.4859 311.889 27.4266C310.814 27.3046 309.387 27.2442 308.432 27.2442L308.463 29.0581Z" fill="#141E3C"/>
<path d="M328.412 29.0581C328.439 30.6896 328.501 33.6529 328.501 34.1956C328.501 35.7678 329.039 36.3721 329.693 36.5522C330.169 36.6754 330.886 36.7951 332.019 36.7951C332.554 36.7951 333.923 36.7324 334.522 36.6754C335.057 36.6138 336.191 36.3094 336.963 35.6458C337.502 35.1624 339.171 33.1672 339.737 32.442C339.856 32.2904 339.945 32.2619 340.063 32.3223L340.541 32.6233C340.63 32.6849 340.661 32.775 340.6 32.9266L339.171 37.4586C339.081 37.73 338.872 37.9124 338.514 37.9124C338.365 37.9124 337.71 37.8816 335.86 37.8531C333.985 37.8531 330.915 37.8223 325.938 37.8223C324.836 37.8223 324.031 37.8531 323.404 37.8531C322.809 37.8816 322.391 37.9124 322.124 37.9124C321.945 37.9124 321.884 37.8531 321.884 37.6707V36.9467C321.884 36.7654 321.945 36.7039 322.181 36.7039H323.195C324.568 36.7039 324.686 36.5237 324.686 35.4053V25.2512C324.686 22.7714 324.627 19.0249 324.568 18.6019C324.448 17.7867 324.149 17.5439 323.256 17.5439H322.124C322.003 17.5439 321.945 17.4834 321.945 17.3341V16.5463C321.945 16.3958 321.973 16.3365 322.124 16.3365C322.779 16.3365 323.851 16.4562 326.295 16.4265H327.128C328.439 16.4265 335.296 16.3661 336.606 16.3661C337.083 16.3661 337.65 16.3365 337.798 16.3365C337.947 16.3365 338.006 16.3958 338.038 16.5177C338.158 16.9111 339.289 21.0179 339.406 21.3223C339.468 21.5036 339.439 21.5925 339.319 21.6552L338.782 21.8969C338.693 21.9266 338.603 21.8969 338.514 21.7453C338.394 21.564 335.95 18.7843 335.235 18.3613C334.611 17.9988 333.806 17.6054 332.972 17.5735L328.439 17.4527L328.383 26.1872C329.275 26.1872 331.421 26.1268 331.779 26.0367C332.434 25.9159 332.791 25.6742 333.15 24.9491C333.328 24.5546 333.626 23.8021 333.626 23.256C333.626 23.0758 333.745 23.0131 333.865 23.0131L334.64 23.0758C334.758 23.0758 334.848 23.1362 334.819 23.3164C334.758 23.8021 334.758 25.795 334.758 26.5806C334.758 27.7903 334.878 29.2394 334.937 29.9041C334.937 30.0557 334.878 30.0854 334.701 30.1173L334.044 30.237C333.923 30.2667 333.865 30.2074 333.806 30.0261C333.687 29.5427 333.478 28.8768 333.328 28.5154C333.06 27.9089 332.494 27.4859 331.838 27.4266C330.766 27.3046 329.335 27.2442 328.383 27.2442L328.412 29.0581Z" fill="#141E3C"/>
<path d="M377.522 24.1624C377.522 29.2998 377.761 33.5309 377.821 34.4669C377.879 35.9776 378.237 36.7039 379.312 36.7039H380.085C380.324 36.7039 380.324 36.8236 380.324 36.9752V37.6707C380.324 37.8531 380.324 37.9124 380.085 37.9124C379.789 37.9124 377.999 37.8212 376.866 37.8212C376.093 37.8212 374.064 37.9124 373.767 37.9124C373.649 37.9124 373.588 37.8531 373.588 37.6399V36.884C373.588 36.8236 373.649 36.7039 373.767 36.7039H374.78C375.555 36.7039 375.973 36.0392 376.122 34.1956C376.152 33.6529 376.331 29.4195 376.331 24.5854V20.7477C376.331 18.936 375.318 17.5439 374.007 17.5439H373.051C372.933 17.5154 372.874 17.4527 372.874 17.3341V16.5177C372.874 16.3957 372.933 16.3365 373.051 16.3365C373.201 16.3365 373.44 16.3661 373.975 16.3957C374.513 16.4265 375.318 16.4265 376.63 16.4265C377.134 16.4265 377.582 16.3957 377.939 16.3661C378.328 16.3661 378.595 16.3365 378.774 16.3365C379.133 16.3365 379.312 16.4265 379.489 16.6078C379.789 16.9111 385.628 24.3436 386.224 25.1896C386.641 25.6742 391.291 31.5379 391.767 32.141H391.888V28.9965C391.888 26.3389 391.888 24.8282 391.826 23.3164C391.767 22.1671 391.647 19.2062 391.5 18.6931C391.291 17.9669 390.635 17.5439 389.921 17.5439H388.966C388.789 17.5439 388.789 17.4242 388.789 17.2725V16.5782C388.789 16.3957 388.789 16.3365 389.026 16.3365C389.384 16.3365 390.336 16.4265 392.363 16.4265C394.151 16.4265 394.866 16.3365 395.226 16.3365C395.462 16.3365 395.523 16.4562 395.523 16.5462V17.244C395.523 17.4241 395.462 17.5439 395.344 17.5439H394.51C393.914 17.5439 393.615 18.0273 393.526 19.1458C393.378 21.2014 393.079 26.2773 393.079 29.3614V37.3401C393.079 37.7631 393.079 38.1849 392.724 38.1849C392.304 38.1849 391.946 37.9443 391.708 37.7015C391.469 37.3982 389.86 35.5261 388.012 33.288C385.927 30.6896 383.603 27.8496 383.245 27.3673C382.826 26.9432 378.059 20.8993 377.7 20.4763H377.522V24.1624Z" fill="#141E3C"/>
<path d="M416.744 34.831C416.744 35.254 416.862 35.555 416.862 35.7979C416.862 36.0396 416.683 36.1582 416.387 36.2802C413.942 37.5503 411.496 38.2754 407.921 38.2754C405.002 38.2754 401.365 37.247 399.34 34.7695C397.491 32.7161 396.595 30.1166 396.595 26.5491C396.595 23.7694 397.789 20.8689 399.995 18.9364C402.142 17.0004 404.881 15.972 408.458 15.972C411.318 15.972 413.584 16.8784 414.537 17.6059C414.896 17.8761 415.075 17.7871 415.253 17.5443L415.61 17.0609C415.76 16.8499 415.849 16.7587 416.028 16.7587C416.324 16.7587 416.387 16.9412 416.387 17.1829L416.683 23.2267C416.683 23.4684 416.683 23.6178 416.565 23.6497L415.849 23.7694C415.669 23.8014 415.61 23.7079 415.55 23.5277C415.133 22.3192 414.359 20.6272 413.165 19.3582C412.153 18.2706 410.484 17.2433 408.22 17.2433C406.37 17.2433 404.763 17.7244 403.154 19.5999C401.722 21.2315 400.708 23.7694 400.708 26.4294C400.708 29.9946 401.663 33.0786 403.39 34.831C404.822 36.2209 406.252 36.8844 408.159 36.8844C410.067 36.8844 411.2 36.6439 412.214 36.1C412.869 35.7352 412.929 34.8903 412.929 33.3192V31.1119C412.929 30.0254 412.631 29.7232 411.854 29.7232H410.604C410.426 29.7232 410.363 29.6024 410.363 29.4507V28.7552C410.363 28.574 410.426 28.5158 410.544 28.5158C410.902 28.5158 412.331 28.6047 414.776 28.6047C417.28 28.6047 418.292 28.5158 418.591 28.5158C418.829 28.5158 418.889 28.574 418.889 28.7256V29.4815C418.889 29.6628 418.829 29.7232 418.648 29.7232H417.635C417.1 29.7232 416.744 29.9649 416.744 30.8406V34.831Z" fill="#141E3C"/>
<path d="M371.071 36.704H369.82C369.104 36.704 368.628 36.5843 368.628 35.6163C368.628 35.2834 368.566 28.332 368.566 28.031V25.6743C368.566 25.3095 368.628 18.6625 368.628 18.3615C368.628 17.7868 369.104 17.544 369.759 17.544H370.893C371.01 17.544 371.132 17.4836 371.132 17.3011V16.6079C371.132 16.4563 371.071 16.3366 370.893 16.3366C370.476 16.3366 369.521 16.4267 366.66 16.4267C363.739 16.4267 362.191 16.3366 361.833 16.3366C361.714 16.3366 361.655 16.3959 361.655 16.5464V17.3342C361.655 17.4836 361.714 17.544 361.891 17.544H363.442C364.276 17.544 364.573 17.8473 364.663 18.5713C364.693 18.9646 364.751 24.4053 364.751 25.1293V27.2443C364.751 28.877 364.693 35.4054 364.634 35.8284C364.514 36.6436 363.858 36.704 363.264 36.704H361.9C361.209 36.6972 360.407 36.68 359.866 36.1909C359.418 35.7679 357.51 33.0464 357.331 32.7443C357.093 32.384 355.247 29.5428 354.887 29.0582C354.471 28.5155 353.935 27.9705 353.101 27.6695V27.5476C356.378 27.0037 358.644 25.4315 358.644 21.6245C358.644 20.4764 358.106 19.2063 357.034 18.2395C355.842 17.1506 353.994 16.3366 351.61 16.3366C350.716 16.3366 347.973 16.4267 346.306 16.4267C343.385 16.4267 342.43 16.3366 342.221 16.3366C342.073 16.3366 342.013 16.3959 342.013 16.5464V17.3639C342.013 17.4836 342.073 17.544 342.221 17.544H343.385C343.921 17.544 344.338 18.0274 344.338 19.0558V27.0037C344.338 29.8426 344.338 32.685 344.278 35.7064C344.278 36.5239 343.802 36.704 343.145 36.704H342.132C342.013 36.704 341.954 36.7952 341.954 36.9468V37.64C341.954 37.8213 342.013 37.9125 342.193 37.9125C342.49 37.9125 343.207 37.8213 346.126 37.8213C349.225 37.8213 349.824 37.9125 350.209 37.9125C350.447 37.9125 350.537 37.8532 350.537 37.64V36.9149C350.537 36.7952 350.477 36.704 350.297 36.704H348.808C348.332 36.704 348.124 36.1579 348.034 35.5547C347.973 35.1032 347.913 31.7182 347.913 29.9042V28.2727C348.243 28.2419 348.748 28.2123 348.867 28.2123C350.12 28.2123 350.806 29.0286 351.55 30.0855C352.028 30.7502 352.862 32.1412 353.16 32.685C353.429 33.1673 354.591 35.3449 355.128 36.1909C355.513 36.8237 356.08 37.64 356.436 37.9125C357.093 37.8818 358.224 37.8213 359.061 37.8213H366.66C369.462 37.8213 370.654 37.9125 371.01 37.9125C371.189 37.9125 371.311 37.8532 371.311 37.6708V36.9149C371.311 36.7656 371.189 36.704 371.071 36.704ZM349.105 27.3047C348.748 27.3047 348.391 27.2443 347.973 27.185L348.034 18.4812C348.034 18.1186 348.152 17.7572 348.391 17.6056C348.629 17.4528 348.988 17.4243 349.463 17.4243C350.954 17.4243 352.326 17.7572 353.396 18.7229C354.142 19.4172 354.708 20.7181 354.708 22.1068C354.708 23.4989 353.757 27.3047 349.105 27.3047Z" fill="#141E3C"/>
</g></svg>